<svg width="16" height="14" viewBox="0 0 16 14" fill="none" xmlns="http://www.w3.org/2000/svg">
<path d="M14.2834 11.7771H1.71582C1.26096 11.7767 0.824835 11.5958 0.503158 11.2742C0.181482 10.9526 0.00052688 10.5166 0 10.0617V1.71582C0.000526691 1.26092 0.181469 0.824799 0.503134 0.503134C0.824799 0.181469 1.26092 0.000526691 1.71582 0H14.2834C14.7383 0.00052688 15.1743 0.181482 15.4959 0.503158C15.8175 0.824834 15.9984 1.26096 15.9988 1.71582V10.0617C15.9984 10.5165 15.8175 10.9526 15.4959 11.2742C15.1743 11.5958 14.7382 11.7767 14.2834 11.7771ZM1.71582 1.19403C1.57747 1.19414 1.44481 1.24914 1.34698 1.34698C1.24914 1.44481 1.19414 1.57747 1.19403 1.71582V10.0617C1.19424 10.2 1.2493 10.3325 1.34712 10.4303C1.44494 10.528 1.57753 10.583 1.71582 10.5831H14.2834C14.4216 10.5829 14.5541 10.5279 14.6518 10.4301C14.7496 10.3324 14.8046 10.1999 14.8048 10.0617V1.71582C14.8047 1.57753 14.7497 1.44494 14.652 1.34712C14.5542 1.2493 14.4217 1.19424 14.2834 1.19403H1.71582Z" fill="white"/>
<path d="M10.7466 13.8668H5.25404C5.15737 13.8667 5.06217 13.8431 4.97663 13.7981C4.89109 13.7531 4.81776 13.6879 4.76295 13.6083C4.70814 13.5287 4.67348 13.4369 4.66197 13.3409C4.65045 13.245 4.66241 13.1476 4.69683 13.0573L5.49285 10.9677C5.53588 10.8548 5.61219 10.7575 5.71169 10.6889C5.81119 10.6202 5.92918 10.5834 6.05006 10.5833H9.95056C10.0714 10.5834 10.1894 10.6202 10.2889 10.6889C10.3884 10.7575 10.4647 10.8548 10.5078 10.9677L11.3038 13.0573C11.3382 13.1476 11.3502 13.245 11.3387 13.3409C11.3271 13.4369 11.2925 13.5287 11.2377 13.6083C11.1829 13.6879 11.1095 13.7531 11.024 13.7981C10.9385 13.8431 10.8433 13.8667 10.7466 13.8668ZM6.12051 12.6728H9.88011L9.53902 11.7773H6.462L6.12051 12.6728Z" fill="white"/>
<path d="M11.9593 13.8669H4.03891C3.88057 13.8669 3.72872 13.804 3.61676 13.692C3.50479 13.5801 3.44189 13.4282 3.44189 13.2699C3.44189 13.1115 3.50479 12.9597 3.61676 12.8477C3.72872 12.7358 3.88057 12.6729 4.03891 12.6729H11.9593C12.1176 12.6729 12.2695 12.7358 12.3814 12.8477C12.4934 12.9597 12.5563 13.1115 12.5563 13.2699C12.5563 13.4282 12.4934 13.5801 12.3814 13.692C12.2695 13.804 12.1176 13.8669 11.9593 13.8669Z" fill="white"/>
<path d="M15.403 9.80731H0.597015C0.438677 9.80731 0.286824 9.74441 0.174862 9.63245C0.0628996 9.52049 0 9.36863 0 9.2103C0 9.05196 0.0628996 8.90011 0.174862 8.78814C0.286824 8.67618 0.438677 8.61328 0.597015 8.61328H15.403C15.5613 8.61328 15.7132 8.67618 15.8251 8.78814C15.9371 8.90011 16 9.05196 16 9.2103C16 9.36863 15.9371 9.52049 15.8251 9.63245C15.7132 9.74441 15.5613 9.80731 15.403 9.80731Z" fill="white"/>
</svg>
