<svg width="16" height="16" viewBox="0 0 16 16" fill="none" xmlns="http://www.w3.org/2000/svg">
<path d="M15.3333 0H0.666667C0.266667 0 0 0.266667 0 0.666667V15.3333C0 15.7333 0.266667 16 0.666667 16H15.3333C15.7333 16 16 15.7333 16 15.3333V0.666667C16 0.266667 15.7333 0 15.3333 0ZM1.33333 4.66667H2V11.3333H1.33333V4.66667ZM14.6667 14.6667H1.33333V12.6667H2V14H14V2H2V3.33333H1.33333V1.33333H14.6667V14.6667ZM2.66667 13.3333V2.66667H13.3333V13.3333H2.66667Z" fill="white"/>
<path d="M10 6C8.86667 6 8 6.86667 8 8C8 9.13333 8.86667 10 10 10C11.1333 10 12 9.13333 12 8C12 6.86667 11.1333 6 10 6ZM10 9.33333C9.26667 9.33333 8.66667 8.73333 8.66667 8C8.66667 7.26667 9.26667 6.66667 10 6.66667C10.7333 6.66667 11.3333 7.26667 11.3333 8C11.3333 8.73333 10.7333 9.33333 10 9.33333Z" fill="white"/>
</svg>
