<svg width="16" height="10" viewBox="0 0 16 10" fill="none" xmlns="http://www.w3.org/2000/svg">
<path d="M3.42863 3.42854C4.37539 3.42854 5.14289 2.66103 5.14289 1.71427C5.14289 0.767505 4.37539 0 3.42863 0C2.48186 0 1.71436 0.767505 1.71436 1.71427C1.71436 2.66103 2.48186 3.42854 3.42863 3.42854Z" fill="white"/>
<path d="M12.5712 3.42854C13.518 3.42854 14.2855 2.66103 14.2855 1.71427C14.2855 0.767505 13.518 0 12.5712 0C11.6244 0 10.8569 0.767505 10.8569 1.71427C10.8569 2.66103 11.6244 3.42854 12.5712 3.42854Z" fill="white"/>
<path d="M11.4284 9.98103V8.26676C11.4284 8.00009 11.3141 7.73343 11.0855 7.58105C10.6284 7.2001 10.0189 6.93344 9.40934 6.78106C8.9903 6.66677 8.49506 6.55249 7.99983 6.55249C7.54269 6.55249 7.04746 6.62868 6.59032 6.78106C5.9808 6.93344 5.40938 7.2382 4.91414 7.58105C4.68557 7.77153 4.57129 8.00009 4.57129 8.26676V9.98103H11.4284Z" fill="white"/>
<path d="M7.99991 6.09529C8.94668 6.09529 9.71418 5.32778 9.71418 4.38102C9.71418 3.43425 8.94668 2.66675 7.99991 2.66675C7.05315 2.66675 6.28564 3.43425 6.28564 4.38102C6.28564 5.32778 7.05315 6.09529 7.99991 6.09529Z" fill="white"/>
<path d="M15.6571 4.9143C15.2 4.53335 14.5905 4.26669 13.981 4.11431C13.5619 4.00003 13.0667 3.88574 12.5715 3.88574C12.1143 3.88574 11.6191 3.96193 11.1619 4.11431C10.9334 4.1905 10.7048 4.26669 10.4762 4.38098V4.41907C10.4762 5.06668 10.2096 5.6762 9.79053 6.09525C10.5143 6.32381 11.0858 6.62857 11.5429 6.97143C11.6572 7.08571 11.7715 7.1619 11.8477 7.31428H16V5.60001C16 5.33335 15.8857 5.06668 15.6571 4.9143Z" fill="white"/>
<path d="M4.4571 6.97143C4.99043 6.59048 5.59995 6.28572 6.20947 6.09525C5.79042 5.63811 5.52376 5.06668 5.52376 4.41907C5.52376 4.38098 5.52376 4.38098 5.52376 4.34288C5.29519 4.26669 5.06662 4.15241 4.83805 4.11431C4.41901 4.00003 3.92377 3.88574 3.42854 3.88574C2.9714 3.88574 2.47617 3.96193 2.01903 4.11431C1.40951 4.30479 0.838087 4.57145 0.342854 4.9143C0.114285 5.06668 0 5.33335 0 5.60001V7.31428H4.11425C4.22853 7.1619 4.30472 7.08571 4.4571 6.97143Z" fill="white"/>
</svg>
