<svg width="16" height="15" viewBox="0 0 16 15" fill="none" xmlns="http://www.w3.org/2000/svg">
<path d="M14.3 0H1.7C0.7624 0 0 0.7176 0 1.6V12.8C0 13.6824 0.7624 14.4 1.7 14.4H14.3C15.2376 14.4 16 13.6824 16 12.8V1.6C16 0.7176 15.2376 0 14.3 0ZM14.3 12.8H1.7C1.6544 12.8 1.6232 12.7872 1.6096 12.7872C1.604 12.7872 1.6008 12.7888 1.6 12.7936L1.5904 1.6368C1.596 1.6288 1.632 1.6 1.7 1.6H14.3C14.3632 1.6008 14.3976 1.6224 14.4 1.6064L14.4096 12.7632C14.404 12.7712 14.368 12.8 14.3 12.8Z" fill="white"/>
<path d="M3.2002 3.19995H8.0002V7.99995H3.2002V3.19995ZM8.8002 9.59995H3.2002V11.2H12.8002V9.59995H9.6002H8.8002ZM9.6002 6.39995H12.8002V7.99995H9.6002V6.39995ZM9.6002 3.19995H12.8002V4.79995H9.6002V3.19995Z" fill="white"/>
</svg>
