<svg width="16" height="15" viewBox="0 0 16 15" fill="none" xmlns="http://www.w3.org/2000/svg">
<path d="M8.61599 14.7703C8.45277 14.7703 8.29623 14.7055 8.18082 14.5901C8.0654 14.4747 8.00056 14.3181 8.00056 14.1549C8.00056 13.9917 8.0654 13.8352 8.18082 13.7197C8.29623 13.6043 8.45277 13.5395 8.61599 13.5395C9.99426 13.5397 11.3327 13.0772 12.4169 12.2262C13.501 11.3752 14.2682 10.1849 14.5953 8.84606C14.9225 7.50718 14.7908 6.09723 14.2213 4.84213C13.6517 3.58703 12.6774 2.55943 11.4543 1.92399C10.2313 1.28854 8.83035 1.08204 7.47598 1.33756C6.1216 1.59308 4.8922 2.29583 3.98475 3.33322C3.07731 4.37061 2.54435 5.68258 2.47129 7.05891C2.39822 8.43524 2.78926 9.79626 3.58177 10.9239C3.67521 11.0571 3.71212 11.2218 3.68444 11.3821C3.65676 11.5424 3.56675 11.6852 3.43407 11.7793C3.36792 11.8266 3.29307 11.8602 3.21385 11.8784C3.13462 11.8965 3.05259 11.8988 2.97248 11.8851C2.89238 11.8713 2.81578 11.8419 2.74713 11.7984C2.67847 11.7549 2.6191 11.6982 2.57246 11.6316C1.62152 10.2786 1.15226 8.64546 1.23987 6.99396C1.32747 5.34247 1.96688 3.76817 3.05564 2.52329C4.1444 1.27842 5.6195 0.435013 7.24461 0.128205C8.86972 -0.178602 10.5508 0.0689443 12.0185 0.831185C13.4862 1.59343 14.6555 2.82624 15.3392 4.33212C16.0229 5.83801 16.1814 7.52979 15.7892 9.13644C15.397 10.7431 14.4769 12.1716 13.1763 13.1931C11.8757 14.2146 10.2698 14.77 8.61599 14.7703Z" fill="white"/>
<path d="M3.69258 12.3085H0.61543C0.452208 12.3085 0.295671 12.2437 0.180255 12.1282C0.0648398 12.0128 0 11.8563 0 11.6931C0 11.5298 0.0648398 11.3733 0.180255 11.2579C0.295671 11.1425 0.452208 11.0776 0.61543 11.0776H3.07715V8.61592C3.07715 8.4527 3.14199 8.29616 3.25741 8.18074C3.37282 8.06533 3.52936 8.00049 3.69258 8.00049C3.85581 8.00049 4.01234 8.06533 4.12776 8.18074C4.24317 8.29616 4.30801 8.4527 4.30801 8.61592V11.6931C4.30801 11.8563 4.24317 12.0128 4.12776 12.1282C4.01234 12.2437 3.85581 12.3085 3.69258 12.3085Z" fill="white"/>
<path d="M6.76988 9.84693C6.68888 9.8474 6.60859 9.83188 6.53361 9.80125C6.45863 9.77062 6.39043 9.72549 6.33292 9.66846C6.27524 9.61124 6.22945 9.54318 6.19821 9.46818C6.16697 9.39319 6.15088 9.31274 6.15088 9.2315C6.15088 9.15026 6.16697 9.06982 6.19821 8.99482C6.22945 8.91982 6.27524 8.85176 6.33292 8.79455L8.00074 7.13288V4.30806C8.00074 4.14484 8.06558 3.9883 8.18099 3.87288C8.29641 3.75747 8.45295 3.69263 8.61617 3.69263C8.77939 3.69263 8.93593 3.75747 9.05134 3.87288C9.16676 3.9883 9.2316 4.14484 9.2316 4.30806V7.38521C9.23207 7.4662 9.21654 7.5465 9.18592 7.62148C9.15529 7.69646 9.11016 7.76466 9.05312 7.82216L7.20683 9.66846C7.14933 9.72549 7.08113 9.77062 7.00615 9.80125C6.93116 9.83188 6.85087 9.8474 6.76988 9.84693Z" fill="white"/>
</svg>
