<svg width="18" height="16" viewBox="0 0 18 16" fill="none" xmlns="http://www.w3.org/2000/svg">
<path d="M15.1596 6.30242C15.0654 6.17735 14.9626 6.05908 14.8518 5.9485L10.2817 1.37837C10.1619 1.25842 10.0197 1.16327 9.86309 1.09834C9.70651 1.03342 9.53868 1 9.36918 1C9.19968 1 9.03184 1.03342 8.87526 1.09834C8.71869 1.16327 8.57645 1.25842 8.45669 1.37837L1.37837 8.45669C1.25842 8.57645 1.16327 8.71869 1.09834 8.87526C1.03342 9.03184 1 9.19967 1 9.36917C1 9.53868 1.03342 9.70651 1.09834 9.86309C1.16327 10.0197 1.25842 10.1619 1.37837 10.2817L4.38819 13.2884" stroke="white" stroke-linecap="round" stroke-linejoin="round"/>
<path d="M15.7164 6.30249H5.66517C4.9564 6.30249 4.38184 6.87706 4.38184 7.58582V13.944C4.38184 14.6528 4.9564 15.2273 5.66517 15.2273H15.7164C16.4251 15.2273 16.9997 14.6528 16.9997 13.944V7.58582C16.9997 6.87706 16.4251 6.30249 15.7164 6.30249Z" stroke="white" stroke-linecap="round" stroke-linejoin="round"/>
<path d="M4.38184 8.7644H16.9997" stroke="white" stroke-linecap="round" stroke-linejoin="round"/>
<path d="M4.38184 9.99536H16.9997" stroke="white" stroke-linecap="round" stroke-linejoin="round"/>
<path d="M6.22852 11.842H8.69054" stroke="white" stroke-linecap="round" stroke-linejoin="round"/>
<path d="M6.22852 13.0732H7.76728" stroke="white" stroke-linecap="round" stroke-linejoin="round"/>
<path d="M9.92188 11.842H11.4606" stroke="white" stroke-linecap="round" stroke-linejoin="round"/>
</svg>
